<?xml version="1.0" encoding="UTF-8" standalone="no"?>
<svg
   viewBox="0 0 32 32"
   version="1.1"
   id="svg10"
   sodipodi:docname="authenticator-db.svg"
   width="32"
   height="32"
   inkscape:version="1.1.1 (3bf5ae0d25, 2021-09-20)"
   xmlns:inkscape="http://www.inkscape.org/namespaces/inkscape"
   xmlns:sodipodi="http://sodipodi.sourceforge.net/DTD/sodipodi-0.dtd"
   xmlns="http://www.w3.org/2000/svg"
   xmlns:svg="http://www.w3.org/2000/svg">
  <defs
     id="defs14" />
  <sodipodi:namedview
     id="namedview12"
     pagecolor="#ffffff"
     bordercolor="#666666"
     borderopacity="1.0"
     inkscape:pageshadow="2"
     inkscape:pageopacity="0.0"
     inkscape:pagecheckerboard="0"
     showgrid="false"
     fit-margin-top="0"
     fit-margin-left="0"
     fit-margin-right="0"
     fit-margin-bottom="0"
     inkscape:zoom="3.9719514"
     inkscape:cx="58.409577"
     inkscape:cy="29.834202"
     inkscape:window-width="1920"
     inkscape:window-height="1137"
     inkscape:window-x="1912"
     inkscape:window-y="-8"
     inkscape:window-maximized="1"
     inkscape:current-layer="svg10" />
  <style
     id="style2">.icon-canvas-transparent{opacity:0;fill:#f6f6f6}.icon-vs-out{fill:#f6f6f6}.icon-vs-bg{fill:#424242}.icon-vs-fg{fill:#f0eff1}</style>
  <style
     id="style2334">.icon-canvas-transparent{opacity:0;fill:#f6f6f6}.icon-vs-out{fill:#f6f6f6}.icon-vs-fg{fill:#f0eff1}.icon-vs-blue{fill:#1ba1e2}</style>
  <path
     style="fill:#0079ff;fill-opacity:1;stroke:none;stroke-width:3.15812;stroke-linecap:round;stop-color:#000000"
     id="path853-0-0"
     sodipodi:type="arc"
     sodipodi:cx="16"
     sodipodi:cy="16"
     sodipodi:rx="16"
     sodipodi:ry="16"
     sodipodi:start="5.8429007"
     sodipodi:end="4.712389"
     sodipodi:arc-type="slice"
     d="M 30.474086,9.1808489 A 16,16 0 0 1 26.585144,27.998113 16,16 0 0 1 7.4298896,29.511225 16,16 0 0 1 0.63478603,11.537915 16,16 0 0 1 16,0 v 16 z" />
  <g
     id="g15567"
     transform="matrix(1.6384052,0,0,1.6384052,30.729695,1.2703043)">
    <g
       id="iconBg-9"
       transform="translate(-16.990264,0.99026425)"
       style="fill:#004e80;fill-opacity:1">
      <path
         class="icon-vs-blue"
         d="M 13,12.75 V 3.25 C 13,2.562 12.419,1.957 11.363,1.547 10.457,1.194 9.263,1 8,1 6.737,1 5.543,1.194 4.637,1.547 3.581,1.957 3,2.562 3,3.25 v 9.5 c 0,0.688 0.581,1.293 1.637,1.703 C 5.543,14.806 6.737,15 8,15 9.263,15 10.457,14.806 11.363,14.453 12.419,14.043 13,13.438 13,12.75 Z M 8,2 c 2.588,0 4,0.826 4,1.25 C 12,3.674 10.588,4.5 8,4.5 5.412,4.5 4,3.674 4,3.25 4,2.826 5.412,2 8,2 Z"
         id="path2339"
         style="fill:#004e80;fill-opacity:1" />
    </g>
    <path
       style="fill:none;fill-opacity:1;stroke:#f6f6f6;stroke-width:0.322905;stroke-linecap:round;stroke-linejoin:miter;stroke-miterlimit:4;stroke-dasharray:none;stroke-opacity:1"
       d="m -12.948477,7.9753413 c 3.4076405,0.9130748 4.910775,0.9501609 7.9164264,0.1447988"
       id="path8986"
       sodipodi:nodetypes="cc" />
    <path
       style="fill:none;fill-opacity:1;stroke:#f6f6f6;stroke-width:0.322905;stroke-linecap:round;stroke-linejoin:miter;stroke-miterlimit:4;stroke-dasharray:none;stroke-opacity:1"
       d="m -12.948477,11.391852 c 3.4076399,0.913075 4.9107749,0.950161 7.9164259,0.144799"
       id="path8986-9"
       sodipodi:nodetypes="cc" />
  </g>
</svg>
