<?xml version="1.0" encoding="UTF-8" standalone="no"?>
<svg
   viewBox="0 0 32 32"
   version="1.1"
   id="svg10"
   sodipodi:docname="authenticator.svg"
   width="32"
   height="32"
   inkscape:version="1.1.1 (3bf5ae0d25, 2021-09-20)"
   xmlns:inkscape="http://www.inkscape.org/namespaces/inkscape"
   xmlns:sodipodi="http://sodipodi.sourceforge.net/DTD/sodipodi-0.dtd"
   xmlns="http://www.w3.org/2000/svg"
   xmlns:svg="http://www.w3.org/2000/svg">
  <defs
     id="defs14" />
  <sodipodi:namedview
     id="namedview12"
     pagecolor="#ffffff"
     bordercolor="#666666"
     borderopacity="1.0"
     inkscape:pageshadow="2"
     inkscape:pageopacity="0.0"
     inkscape:pagecheckerboard="0"
     showgrid="false"
     fit-margin-top="0"
     fit-margin-left="0"
     fit-margin-right="0"
     fit-margin-bottom="0"
     inkscape:zoom="3.9719514"
     inkscape:cx="58.409577"
     inkscape:cy="29.834202"
     inkscape:window-width="1920"
     inkscape:window-height="1137"
     inkscape:window-x="1912"
     inkscape:window-y="-8"
     inkscape:window-maximized="1"
     inkscape:current-layer="svg10" />
  <style
     id="style2">.icon-canvas-transparent{opacity:0;fill:#f6f6f6}.icon-vs-out{fill:#f6f6f6}.icon-vs-bg{fill:#424242}.icon-vs-fg{fill:#f0eff1}</style>
  <path
     style="fill:#0079ff;fill-opacity:1;stroke:none;stroke-width:3.15812;stroke-linecap:round;stop-color:#000000"
     id="path853-0"
     sodipodi:type="arc"
     sodipodi:cx="16"
     sodipodi:cy="16"
     sodipodi:rx="16"
     sodipodi:ry="16"
     sodipodi:start="5.8429007"
     sodipodi:end="4.712389"
     sodipodi:arc-type="slice"
     d="M 30.474086,9.1808489 A 16,16 0 0 1 26.585144,27.998113 16,16 0 0 1 7.4298896,29.511225 16,16 0 0 1 0.63478603,11.537915 16,16 0 0 1 16,0 v 16 z" />
  <path
     class="icon-canvas-transparent"
     d="M 28.800001,28.8 H 3.1999993 V 3.1999999 H 28.800001 Z"
     id="canvas"
     style="stroke-width:1.6" />
  <path
     class="icon-vs-fg"
     d="M 24.000001,14.6 V 25.8 H 8 V 14.6 Z M 18,18.2 a 2,2 0 0 0 -4,0 c 0,0.8192 0.4944,1.52 1.2,1.8288 V 24.2 h 1.6 V 20.0288 C 17.5056,19.72 18,19.0192 18,18.2 Z"
     id="iconFg"
     style="stroke-width:1.6" />
  <g
     id="iconBg"
     transform="matrix(1.6,0,0,1.6,3.2,3.4)"
     style="fill:#004e80;fill-opacity:1">
    <path
       class="icon-vs-bg"
       d="M 12,6 V 4.75 c 0,-2.206 -1.794,-4 -4,-4 -2.206,0 -4,1.794 -4,4 V 6 H 2 v 9 H 14 V 6 Z M 5,4.75 c 0,-1.654 1.346,-3 3,-3 1.654,0 3,1.346 3,3 V 6 H 5 Z M 13,14 H 3 V 7 H 13 Z M 6.75,9.25 a 1.25,1.25 0 0 1 2.5,0 c 0,0.512 -0.309,0.95 -0.75,1.143 V 13 h -1 V 10.393 A 1.248,1.248 0 0 1 6.75,9.25 Z"
       id="path7"
       style="fill:#004e80;fill-opacity:1" />
  </g>
  <style
     id="style2334">.icon-canvas-transparent{opacity:0;fill:#f6f6f6}.icon-vs-out{fill:#f6f6f6}.icon-vs-fg{fill:#f0eff1}.icon-vs-blue{fill:#1ba1e2}</style>
</svg>
